{
	"asset":{
		"generator":"Khronos glTF Blender I/O v4.0.43",
		"version":"2.0"
	},
	"scene":0,
	"scenes":[
		{
			"name":"Scene",
			"nodes":[
				14
			]
		}
	],
	"nodes":[
		{
			"mesh":0,
			"name":"Object_10"
		},
		{
			"mesh":1,
			"name":"Object_11"
		},
		{
			"mesh":2,
			"name":"Object_12"
		},
		{
			"mesh":3,
			"name":"Object_13"
		},
		{
			"mesh":4,
			"name":"Object_14"
		},
		{
			"mesh":5,
			"name":"Object_2"
		},
		{
			"mesh":6,
			"name":"Object_3"
		},
		{
			"mesh":7,
			"name":"Object_4"
		},
		{
			"mesh":8,
			"name":"Object_5"
		},
		{
			"mesh":9,
			"name":"Object_6"
		},
		{
			"mesh":10,
			"name":"Object_7"
		},
		{
			"mesh":11,
			"name":"Object_8"
		},
		{
			"mesh":12,
			"name":"Object_9"
		},
		{
			"children":[
				0,
				1,
				2,
				3,
				4,
				5,
				6,
				7,
				8,
				9,
				10,
				11,
				12
			],
			"name":"180212_Erik_XIV_Rustning_2.obj.cleaner.materialmerger.gles"
		},
		{
			"children":[
				13
			],
			"name":"Sketchfab_model",
			"rotation":[
				0.506721556186676,
				-0.003919912967830896,
				0.8620977997779846,
				0.002304036170244217
			],
			"translation":[
				0.06346297264099121,
				-17.10419464111328,
				-0.00127410888671875
			]
		}
	],
	"materials":[
		{
			"doubleSided":true,
			"name":"180212_Erik_XIV_Rustning_2_Material_u1_v1.001",
			"pbrMetallicRoughness":{
				"baseColorTexture":{
					"index":0
				},
				"roughnessFactor":0.2800000011920929
			}
		}
	],
	"meshes":[
		{
			"name":"Object_8.001",
			"primitives":[
				{
					"attributes":{
						"POSITION":0,
						"NORMAL":1,
						"TEXCOORD_0":2
					},
					"indices":3,
					"material":0
				}
			]
		},
		{
			"name":"Object_9.001",
			"primitives":[
				{
					"attributes":{
						"POSITION":4,
						"NORMAL":5,
						"TEXCOORD_0":6
					},
					"indices":7,
					"material":0
				}
			]
		},
		{
			"name":"Object_10.001",
			"primitives":[
				{
					"attributes":{
						"POSITION":8,
						"NORMAL":9,
						"TEXCOORD_0":10
					},
					"indices":11,
					"material":0
				}
			]
		},
		{
			"name":"Object_11.001",
			"primitives":[
				{
					"attributes":{
						"POSITION":12,
						"NORMAL":13,
						"TEXCOORD_0":14
					},
					"indices":15,
					"material":0
				}
			]
		},
		{
			"name":"Object_12.001",
			"primitives":[
				{
					"attributes":{
						"POSITION":16,
						"NORMAL":17,
						"TEXCOORD_0":18
					},
					"indices":19,
					"material":0
				}
			]
		},
		{
			"name":"Object_0.001",
			"primitives":[
				{
					"attributes":{
						"POSITION":20,
						"NORMAL":21,
						"TEXCOORD_0":22
					},
					"indices":23,
					"material":0
				}
			]
		},
		{
			"name":"Object_1.001",
			"primitives":[
				{
					"attributes":{
						"POSITION":24,
						"NORMAL":25,
						"TEXCOORD_0":26
					},
					"indices":27,
					"material":0
				}
			]
		},
		{
			"name":"Object_2.001",
			"primitives":[
				{
					"attributes":{
						"POSITION":28,
						"NORMAL":29,
						"TEXCOORD_0":30
					},
					"indices":31,
					"material":0
				}
			]
		},
		{
			"name":"Object_3.001",
			"primitives":[
				{
					"attributes":{
						"POSITION":32,
						"NORMAL":33,
						"TEXCOORD_0":34
					},
					"indices":35,
					"material":0
				}
			]
		},
		{
			"name":"Object_4.001",
			"primitives":[
				{
					"attributes":{
						"POSITION":36,
						"NORMAL":37,
						"TEXCOORD_0":38
					},
					"indices":39,
					"material":0
				}
			]
		},
		{
			"name":"Object_5.001",
			"primitives":[
				{
					"attributes":{
						"POSITION":40,
						"NORMAL":41,
						"TEXCOORD_0":42
					},
					"indices":43,
					"material":0
				}
			]
		},
		{
			"name":"Object_6.001",
			"primitives":[
				{
					"attributes":{
						"POSITION":44,
						"NORMAL":45,
						"TEXCOORD_0":46
					},
					"indices":47,
					"material":0
				}
			]
		},
		{
			"name":"Object_7.001",
			"primitives":[
				{
					"attributes":{
						"POSITION":48,
						"NORMAL":49,
						"TEXCOORD_0":50
					},
					"indices":51,
					"material":0
				}
			]
		}
	],
	"textures":[
		{
			"sampler":0,
			"source":0
		}
	],
	"images":[
		{
			"mimeType":"image/jpeg",
			"name":"180212_Erik_XIV_Rustning_2_Material_u1_v1_baseColor",
			"uri":"180212_Erik_XIV_Rustning_2_Material_u1_v1_baseColor.jpg"
		}
	],
	"accessors":[
		{
			"bufferView":0,
			"componentType":5126,
			"count":65754,
			"max":[
				5.696730136871338,
				-0.05078697204589844,
				4.773683547973633
			],
			"min":[
				-3.056154489517212,
				-31.374164581298828,
				-4.429599761962891
			],
			"type":"VEC3"
		},
		{
			"bufferView":1,
			"componentType":5126,
			"count":65754,
			"type":"VEC3"
		},
		{
			"bufferView":2,
			"componentType":5126,
			"count":65754,
			"type":"VEC2"
		},
		{
			"bufferView":3,
			"componentType":5125,
			"count":236916,
			"type":"SCALAR"
		},
		{
			"bufferView":4,
			"componentType":5126,
			"count":65757,
			"max":[
				4.788586616516113,
				-9.6188383102417,
				3.8697657585144043
			],
			"min":[
				-4.4925079345703125,
				-31.368186950683594,
				-4.096452713012695
			],
			"type":"VEC3"
		},
		{
			"bufferView":5,
			"componentType":5126,
			"count":65757,
			"type":"VEC3"
		},
		{
			"bufferView":6,
			"componentType":5126,
			"count":65757,
			"type":"VEC2"
		},
		{
			"bufferView":7,
			"componentType":5125,
			"count":226668,
			"type":"SCALAR"
		},
		{
			"bufferView":8,
			"componentType":5126,
			"count":65795,
			"max":[
				5.69021463394165,
				-8.811182022094727,
				4.2591023445129395
			],
			"min":[
				-3.5324089527130127,
				-26.76358413696289,
				-4.429599761962891
			],
			"type":"VEC3"
		},
		{
			"bufferView":9,
			"componentType":5126,
			"count":65795,
			"type":"VEC3"
		},
		{
			"bufferView":10,
			"componentType":5126,
			"count":65795,
			"type":"VEC2"
		},
		{
			"bufferView":11,
			"componentType":5125,
			"count":201522,
			"type":"SCALAR"
		},
		{
			"bufferView":12,
			"componentType":5126,
			"count":65833,
			"max":[
				5.777766227722168,
				-8.367125511169434,
				5.127171039581299
			],
			"min":[
				-4.225021839141846,
				-29.151174545288086,
				-4.583021640777588
			],
			"type":"VEC3"
		},
		{
			"bufferView":13,
			"componentType":5126,
			"count":65833,
			"type":"VEC3"
		},
		{
			"bufferView":14,
			"componentType":5126,
			"count":65833,
			"type":"VEC2"
		},
		{
			"bufferView":15,
			"componentType":5125,
			"count":185886,
			"type":"SCALAR"
		},
		{
			"bufferView":16,
			"componentType":5126,
			"count":43525,
			"max":[
				5.575257778167725,
				-0.04549217224121094,
				3.16766619682312
			],
			"min":[
				-4.704563617706299,
				-31.316551208496094,
				-4.4247589111328125
			],
			"type":"VEC3"
		},
		{
			"bufferView":17,
			"componentType":5126,
			"count":43525,
			"type":"VEC3"
		},
		{
			"bufferView":18,
			"componentType":5126,
			"count":43525,
			"type":"VEC2"
		},
		{
			"bufferView":19,
			"componentType":5123,
			"count":116118,
			"type":"SCALAR"
		},
		{
			"bufferView":20,
			"componentType":5126,
			"count":65664,
			"max":[
				5.563042640686035,
				-0.035854339599609375,
				4.41163969039917
			],
			"min":[
				-4.420384883880615,
				-34.72584533691406,
				-3.653252601623535
			],
			"type":"VEC3"
		},
		{
			"bufferView":21,
			"componentType":5126,
			"count":65664,
			"type":"VEC3"
		},
		{
			"bufferView":22,
			"componentType":5126,
			"count":65664,
			"type":"VEC2"
		},
		{
			"bufferView":23,
			"componentType":5125,
			"count":268731,
			"type":"SCALAR"
		},
		{
			"bufferView":24,
			"componentType":5126,
			"count":65668,
			"max":[
				4.627731800079346,
				-0.15819549560546875,
				4.487353801727295
			],
			"min":[
				-6.342628002166748,
				-33.981834411621094,
				-4.083322525024414
			],
			"type":"VEC3"
		},
		{
			"bufferView":25,
			"componentType":5126,
			"count":65668,
			"type":"VEC3"
		},
		{
			"bufferView":26,
			"componentType":5126,
			"count":65668,
			"type":"VEC2"
		},
		{
			"bufferView":27,
			"componentType":5125,
			"count":271581,
			"type":"SCALAR"
		},
		{
			"bufferView":28,
			"componentType":5126,
			"count":65693,
			"max":[
				5.810373783111572,
				-0.041255950927734375,
				5.050244331359863
			],
			"min":[
				-3.9407947063446045,
				-34.1988410949707,
				-4.583021640777588
			],
			"type":"VEC3"
		},
		{
			"bufferView":29,
			"componentType":5126,
			"count":65693,
			"type":"VEC3"
		},
		{
			"bufferView":30,
			"componentType":5126,
			"count":65693,
			"type":"VEC2"
		},
		{
			"bufferView":31,
			"componentType":5125,
			"count":272853,
			"type":"SCALAR"
		},
		{
			"bufferView":32,
			"componentType":5126,
			"count":65714,
			"max":[
				6.25848388671875,
				-0.06899070739746094,
				4.25150728225708
			],
			"min":[
				-5.481463432312012,
				-33.276084899902344,
				-4.505056381225586
			],
			"type":"VEC3"
		},
		{
			"bufferView":33,
			"componentType":5126,
			"count":65714,
			"type":"VEC3"
		},
		{
			"bufferView":34,
			"componentType":5126,
			"count":65714,
			"type":"VEC2"
		},
		{
			"bufferView":35,
			"componentType":5125,
			"count":252192,
			"type":"SCALAR"
		},
		{
			"bufferView":36,
			"componentType":5126,
			"count":65721,
			"max":[
				5.830789089202881,
				-0.046077728271484375,
				5.090944766998291
			],
			"min":[
				-6.07010555267334,
				-33.752899169921875,
				-4.383123874664307
			],
			"type":"VEC3"
		},
		{
			"bufferView":37,
			"componentType":5126,
			"count":65721,
			"type":"VEC3"
		},
		{
			"bufferView":38,
			"componentType":5126,
			"count":65721,
			"type":"VEC2"
		},
		{
			"bufferView":39,
			"componentType":5125,
			"count":250074,
			"type":"SCALAR"
		},
		{
			"bufferView":40,
			"componentType":5126,
			"count":65691,
			"max":[
				6.252270221710205,
				-8.32398796081543,
				5.1161885261535645
			],
			"min":[
				-6.47017240524292,
				-31.23953628540039,
				-4.5792131423950195
			],
			"type":"VEC3"
		},
		{
			"bufferView":41,
			"componentType":5126,
			"count":65691,
			"type":"VEC3"
		},
		{
			"bufferView":42,
			"componentType":5126,
			"count":65691,
			"type":"VEC2"
		},
		{
			"bufferView":43,
			"componentType":5125,
			"count":256380,
			"type":"SCALAR"
		},
		{
			"bufferView":44,
			"componentType":5126,
			"count":65742,
			"max":[
				5.566498279571533,
				-0.05310821533203125,
				4.776886940002441
			],
			"min":[
				-6.285452365875244,
				-32.86781692504883,
				-3.8467254638671875
			],
			"type":"VEC3"
		},
		{
			"bufferView":45,
			"componentType":5126,
			"count":65742,
			"type":"VEC3"
		},
		{
			"bufferView":46,
			"componentType":5126,
			"count":65742,
			"type":"VEC2"
		},
		{
			"bufferView":47,
			"componentType":5125,
			"count":249408,
			"type":"SCALAR"
		},
		{
			"bufferView":48,
			"componentType":5126,
			"count":65798,
			"max":[
				5.756588459014893,
				-0.035854339599609375,
				3.677861213684082
			],
			"min":[
				-6.001183032989502,
				-30.04875373840332,
				-4.556891441345215
			],
			"type":"VEC3"
		},
		{
			"bufferView":49,
			"componentType":5126,
			"count":65798,
			"type":"VEC3"
		},
		{
			"bufferView":50,
			"componentType":5126,
			"count":65798,
			"type":"VEC2"
		},
		{
			"bufferView":51,
			"componentType":5125,
			"count":211671,
			"type":"SCALAR"
		}
	],
	"bufferViews":[
		{
			"buffer":0,
			"byteLength":789048,
			"byteOffset":0,
			"target":34962
		},
		{
			"buffer":0,
			"byteLength":789048,
			"byteOffset":789048,
			"target":34962
		},
		{
			"buffer":0,
			"byteLength":526032,
			"byteOffset":1578096,
			"target":34962
		},
		{
			"buffer":0,
			"byteLength":947664,
			"byteOffset":2104128,
			"target":34963
		},
		{
			"buffer":0,
			"byteLength":789084,
			"byteOffset":3051792,
			"target":34962
		},
		{
			"buffer":0,
			"byteLength":789084,
			"byteOffset":3840876,
			"target":34962
		},
		{
			"buffer":0,
			"byteLength":526056,
			"byteOffset":4629960,
			"target":34962
		},
		{
			"buffer":0,
			"byteLength":906672,
			"byteOffset":5156016,
			"target":34963
		},
		{
			"buffer":0,
			"byteLength":789540,
			"byteOffset":6062688,
			"target":34962
		},
		{
			"buffer":0,
			"byteLength":789540,
			"byteOffset":6852228,
			"target":34962
		},
		{
			"buffer":0,
			"byteLength":526360,
			"byteOffset":7641768,
			"target":34962
		},
		{
			"buffer":0,
			"byteLength":806088,
			"byteOffset":8168128,
			"target":34963
		},
		{
			"buffer":0,
			"byteLength":789996,
			"byteOffset":8974216,
			"target":34962
		},
		{
			"buffer":0,
			"byteLength":789996,
			"byteOffset":9764212,
			"target":34962
		},
		{
			"buffer":0,
			"byteLength":526664,
			"byteOffset":10554208,
			"target":34962
		},
		{
			"buffer":0,
			"byteLength":743544,
			"byteOffset":11080872,
			"target":34963
		},
		{
			"buffer":0,
			"byteLength":522300,
			"byteOffset":11824416,
			"target":34962
		},
		{
			"buffer":0,
			"byteLength":522300,
			"byteOffset":12346716,
			"target":34962
		},
		{
			"buffer":0,
			"byteLength":348200,
			"byteOffset":12869016,
			"target":34962
		},
		{
			"buffer":0,
			"byteLength":232236,
			"byteOffset":13217216,
			"target":34963
		},
		{
			"buffer":0,
			"byteLength":787968,
			"byteOffset":13449452,
			"target":34962
		},
		{
			"buffer":0,
			"byteLength":787968,
			"byteOffset":14237420,
			"target":34962
		},
		{
			"buffer":0,
			"byteLength":525312,
			"byteOffset":15025388,
			"target":34962
		},
		{
			"buffer":0,
			"byteLength":1074924,
			"byteOffset":15550700,
			"target":34963
		},
		{
			"buffer":0,
			"byteLength":788016,
			"byteOffset":16625624,
			"target":34962
		},
		{
			"buffer":0,
			"byteLength":788016,
			"byteOffset":17413640,
			"target":34962
		},
		{
			"buffer":0,
			"byteLength":525344,
			"byteOffset":18201656,
			"target":34962
		},
		{
			"buffer":0,
			"byteLength":1086324,
			"byteOffset":18727000,
			"target":34963
		},
		{
			"buffer":0,
			"byteLength":788316,
			"byteOffset":19813324,
			"target":34962
		},
		{
			"buffer":0,
			"byteLength":788316,
			"byteOffset":20601640,
			"target":34962
		},
		{
			"buffer":0,
			"byteLength":525544,
			"byteOffset":21389956,
			"target":34962
		},
		{
			"buffer":0,
			"byteLength":1091412,
			"byteOffset":21915500,
			"target":34963
		},
		{
			"buffer":0,
			"byteLength":788568,
			"byteOffset":23006912,
			"target":34962
		},
		{
			"buffer":0,
			"byteLength":788568,
			"byteOffset":23795480,
			"target":34962
		},
		{
			"buffer":0,
			"byteLength":525712,
			"byteOffset":24584048,
			"target":34962
		},
		{
			"buffer":0,
			"byteLength":1008768,
			"byteOffset":25109760,
			"target":34963
		},
		{
			"buffer":0,
			"byteLength":788652,
			"byteOffset":26118528,
			"target":34962
		},
		{
			"buffer":0,
			"byteLength":788652,
			"byteOffset":26907180,
			"target":34962
		},
		{
			"buffer":0,
			"byteLength":525768,
			"byteOffset":27695832,
			"target":34962
		},
		{
			"buffer":0,
			"byteLength":1000296,
			"byteOffset":28221600,
			"target":34963
		},
		{
			"buffer":0,
			"byteLength":788292,
			"byteOffset":29221896,
			"target":34962
		},
		{
			"buffer":0,
			"byteLength":788292,
			"byteOffset":30010188,
			"target":34962
		},
		{
			"buffer":0,
			"byteLength":525528,
			"byteOffset":30798480,
			"target":34962
		},
		{
			"buffer":0,
			"byteLength":1025520,
			"byteOffset":31324008,
			"target":34963
		},
		{
			"buffer":0,
			"byteLength":788904,
			"byteOffset":32349528,
			"target":34962
		},
		{
			"buffer":0,
			"byteLength":788904,
			"byteOffset":33138432,
			"target":34962
		},
		{
			"buffer":0,
			"byteLength":525936,
			"byteOffset":33927336,
			"target":34962
		},
		{
			"buffer":0,
			"byteLength":997632,
			"byteOffset":34453272,
			"target":34963
		},
		{
			"buffer":0,
			"byteLength":789576,
			"byteOffset":35450904,
			"target":34962
		},
		{
			"buffer":0,
			"byteLength":789576,
			"byteOffset":36240480,
			"target":34962
		},
		{
			"buffer":0,
			"byteLength":526384,
			"byteOffset":37030056,
			"target":34962
		},
		{
			"buffer":0,
			"byteLength":846684,
			"byteOffset":37556440,
			"target":34963
		}
	],
	"samplers":[
		{
			"magFilter":9729,
			"minFilter":9987
		}
	],
	"buffers":[
		{
			"byteLength":38403124,
			"uri":"MedievalArmor.bin"
		}
	]
}
